<svg t="1709536262061" class="icon" viewBox="0 0 1024 1024" version="1.1" xmlns="http://www.w3.org/2000/svg" p-id="3867"
    width="48" height="48">
    <path
        d="M512 85.76l141.17888 184.32H545.28v61.7472l190.80704 86.92224a46.10048 46.10048 0 0 1 10.94656 6.98368A46.10048 46.10048 0 0 1 778.24 469.36064v268.78976l38.61504 33.01376 62.72-80.27648 58.32704 224.73216-232.1664-2.2272 66.94912-85.69344-43.14112-36.87936-187.4432 89.55904a46.08 46.08 0 0 1-32.6656 2.69824 46.08 46.08 0 0 1-32.6656-2.69824h0.00512L286.0544 789.248l-34.048 29.10208 66.26304 84.80256-232.1664 2.2272 58.32704-224.73216 63.4112 81.16736L240.64 733.7728V469.36064a46.10048 46.10048 0 0 1 30.4896-43.37664 45.73184 45.73184 0 0 1 11.5456-7.38816L473.6 333.50656V270.08H370.82112l141.17888-184.32z m-40.96 545.35168l-125.37856 107.17696L471.04 798.19264v-167.08096z m76.8 4.38272v162.69824l122.09152-58.33216L547.84 635.4944z m158.72-119.7568l-124.02176 55.12192L706.56 676.87424V515.7376z m-394.24-0.07168v156.83072l121.61024-103.95648L312.32 515.66592z m161.28-103.68l-103.51616 46.1312 103.51616 49.4592v-95.5904z m71.68-1.39776v96.98816l103.91552-49.64864-103.91552-47.33952z"
        fill="currentColor" p-id="3868"></path>
</svg>