<svg t="1710728326137" class="icon" viewBox="0 0 1024 1024" version="1.1" xmlns="http://www.w3.org/2000/svg"
    p-id="10795" width="48" height="48">
    <path
        d="M977.453699 0.001862a47.476277 47.476277 0 0 1 22.527959 5.818171 40.959926 40.959926 0 0 1 6.097444 4.002902c2.978904 2.327268 5.678535 5.0269 8.005803 8.005803l-3.723629-4.189083a46.917733 46.917733 0 0 1 13.125794 26.018862A46.405734 46.405734 0 0 1 1023.999069 46.547232l-0.186181-4.002902 0.139636 2.51345L1023.999069 46.547232v698.180548a47.010824 47.010824 0 0 1-1.442906 11.636343l-0.418909 1.396361a42.635559 42.635559 0 0 1-1.442906 4.235629l-0.558545 1.256725a42.542468 42.542468 0 0 1-5.213081 9.076347c-1.396361 1.861815-2.885813 3.630539-4.561446 5.306172l3.81672-4.328719a46.964278 46.964278 0 0 1-0.418908 0.511999l-3.397812 3.81672-232.72685 232.72685a46.824642 46.824642 0 0 1-14.382519 9.774527l-1.256725 0.558545a42.542468 42.542468 0 0 1-4.235629 1.442906l-1.396361 0.372363A42.914831 42.914831 0 0 1 744.72685 1024l5.864716-0.372363A47.010824 47.010824 0 0 1 744.72685 1024H46.546301a47.476277 47.476277 0 0 1-22.527959-5.818171 40.91338 40.91338 0 0 1-6.190534-4.095993 46.917733 46.917733 0 0 1-7.912713-7.912713l3.723629 4.189084a46.917733 46.917733 0 0 1-13.125794-26.018862A46.405734 46.405734 0 0 1 0.000931 977.45463l0.186181 4.189083A46.824642 46.824642 0 0 1 0.000931 978.385537V279.274081a47.010824 47.010824 0 0 1 1.442906-11.636342l0.418909-1.396361a42.635559 42.635559 0 0 1 1.442906-4.235629l0.558545-1.256725a42.542468 42.542468 0 0 1 5.213081-9.076347c1.396361-1.861815 2.885813-3.630539 4.561446-5.306172l-3.81672 4.328719c1.163634-1.535997 2.466905-2.978904 3.81672-4.328719l232.72685-232.72685L250.182294 10.241843a46.778097 46.778097 0 0 1 10.565799-6.423261l1.256725-0.465454A42.542468 42.542468 0 0 1 266.240447 1.863677l1.396361-0.372363A42.914831 42.914831 0 0 1 279.27315 0.001862l-5.864716 0.372363A47.010824 47.010824 0 0 1 279.27315 0.001862z m-279.272219 791.271288H298.542934l-139.63611 139.63611H698.18148v-139.63611z m166.818605 0H791.27222v73.727866L865.000085 791.27315zM232.72778 325.819451H93.091671v539.181565l139.636109-139.636109V325.819451z m465.4537 0H325.81852v372.36296h372.36296V325.819451z m232.726849-166.911696l-139.636109 139.636109V698.182411h139.636109V158.907755zM865.000085 93.092602H325.81852v139.636109h399.545456l139.636109-139.636109zM232.72778 158.907755L158.906824 232.728711H232.72778V158.907755z"
        fill="currentColor" p-id="10796"></path>
</svg>