<svg t="1713349354614" class="icon" viewBox="0 0 1024 1024" version="1.1" xmlns="http://www.w3.org/2000/svg"
    p-id="17886" width="48" height="48">
    <path
        d="M512 704a951.04 951.04 0 0 1-320-49.28 329.6 329.6 0 0 1-102.4-56.96A112 112 0 0 1 44.8 512a112 112 0 0 1 44.16-84.48A328.32 328.32 0 0 1 192 370.56 953.6 953.6 0 0 1 512 320a951.04 951.04 0 0 1 320 49.28 328.32 328.32 0 0 1 102.4 56.96A112 112 0 0 1 978.56 512a112 112 0 0 1-44.16 83.84 328.32 328.32 0 0 1-102.4 56.96 951.68 951.68 0 0 1-320 51.2z m0-307.2C268.16 395.52 119.04 463.36 119.04 512S268.16 627.84 512 627.84 904.32 560 904.32 512 754.56 395.52 512 395.52z"
        fill="currentColor" p-id="17887"></path>
    <path
        d="M512 695.68a945.28 945.28 0 0 1-320-49.28 320 320 0 0 1-100.48-55.68A105.6 105.6 0 0 1 51.2 512a105.6 105.6 0 0 1 41.6-79.36A320 320 0 0 1 192 376.96a947.2 947.2 0 0 1 320-49.28 945.28 945.28 0 0 1 320 49.28 320 320 0 0 1 100.48 55.68A105.6 105.6 0 0 1 972.16 512a105.6 105.6 0 0 1-41.6 79.36 320 320 0 0 1-100.48 55.68 947.2 947.2 0 0 1-320 49.28z m0-307.2c-235.52 0-398.72 64-398.72 122.88S276.48 634.24 512 634.24s398.72-64 398.72-122.88S746.88 389.12 512 389.12z m0 0"
        fill="currentColor" p-id="17888"></path>
    <path
        d="M512 978.56a112 112 0 0 1-83.84-44.16 328.32 328.32 0 0 1-57.6-102.4A952.96 952.96 0 0 1 320 512a951.68 951.68 0 0 1 49.28-320 329.6 329.6 0 0 1 56.96-102.4A112 112 0 0 1 512 44.8a112 112 0 0 1 83.84 44.16A329.6 329.6 0 0 1 652.8 192a954.88 954.88 0 0 1 51.2 320 951.04 951.04 0 0 1-49.28 320 328.32 328.32 0 0 1-56.96 102.4 111.36 111.36 0 0 1-85.76 44.16zM512 119.04C462.72 119.04 394.88 268.8 394.88 512S462.72 904.32 512 904.32 627.84 755.2 627.84 512 560 119.04 512 119.04z"
        fill="currentColor" p-id="17889"></path>
    <path
        d="M512 972.16a105.6 105.6 0 0 1-79.36-41.6A320 320 0 0 1 376.32 832a947.2 947.2 0 0 1-49.28-320 944.64 944.64 0 0 1 49.28-320 320 320 0 0 1 55.68-100.48A105.6 105.6 0 0 1 512 51.2a105.6 105.6 0 0 1 79.36 41.6A320 320 0 0 1 646.4 192a947.2 947.2 0 0 1 49.28 320 944.64 944.64 0 0 1-49.28 320 320 320 0 0 1-55.68 100.48 105.6 105.6 0 0 1-78.72 39.68zM512 112.64c-58.24 0-123.52 163.84-123.52 399.36s64 398.72 122.88 398.72S634.24 746.88 634.24 512 569.6 112.64 512 112.64z m0 0"
        fill="currentColor" p-id="17890"></path>
    <path
        d="M512 978.56A465.92 465.92 0 0 1 44.8 512a467.2 467.2 0 0 1 284.8-430.08 467.84 467.84 0 0 1 611.84 248.32 467.84 467.84 0 0 1-248.32 611.84 462.08 462.08 0 0 1-181.12 36.48zM512 119.04A392.96 392.96 0 1 0 904.32 512 392.96 392.96 0 0 0 512 119.04z"
        fill="currentColor" p-id="17891"></path>
    <path
        d="M512 972.16a457.6 457.6 0 1 1 179.2-35.84 458.24 458.24 0 0 1-179.2 35.84zM512 112.64A398.72 398.72 0 1 0 910.72 512 399.36 399.36 0 0 0 512 112.64z m0 0"
        fill="currentColor" p-id="17892"></path>
</svg>