<svg t="1710728469419" class="icon" viewBox="0 0 1024 1024" version="1.1" xmlns="http://www.w3.org/2000/svg"
    p-id="18391" width="48" height="48">
    <path
        d="M512 0C229.234286 0 0 229.234286 0 512s229.234286 512 512 512 512-229.234286 512-512S794.765714 0 512 0zM271.062857 512c0-77.497143 9.371429-150.457143 25.622857-215.325714 64.868571-16.251429 137.828571-25.622857 215.325715-25.622857s150.457143 9.371429 215.325714 25.622857c16.251429 64.868571 25.622857 137.828571 25.622857 215.325714s-9.371429 150.457143-25.622857 215.325714c-64.868571 16.251429-137.828571 25.622857-215.325714 25.622857s-150.457143-9.371429-215.325715-25.622857c-16.262857-64.868571-25.622857-137.828571-25.622857-215.325714z m-6.994286 206.32C124.068571 676.171429 30.114286 599.668571 30.114286 512s93.954286-164.171429 233.954285-206.32C249.302857 368.811429 240.937143 438.514286 240.937143 512s8.365714 143.188571 23.131428 206.32z m495.862858-412.64C899.931429 347.828571 993.885714 424.331429 993.885714 512s-93.954286 164.171429-233.954285 206.32c14.765714-63.131429 23.131429-132.834286 23.131428-206.32s-8.365714-143.188571-23.131428-206.32z m221.28 98c-46.445714-56.251429-127.851429-102.594286-229.828572-131.211429C722.742857 170.685714 676.571429 89.142857 620.308571 42.788571c179.028571 41.188571 319.668571 181.965714 360.902858 360.891429zM718.308571 264c-63.154286-14.754286-132.845714-23.085714-206.308571-23.085714s-143.154286 8.342857-206.308571 23.085714C347.851429 124.057143 424.342857 30.114286 512 30.114286S676.148571 124.057143 718.308571 264zM403.691429 42.788571C347.428571 89.142857 301.257143 170.685714 272.617143 272.468571c-101.965714 28.571429-183.382857 74.914286-229.817143 131.211429C84.022857 224.754286 224.662857 83.977143 403.691429 42.788571zM42.788571 620.32c46.445714 56.251429 127.851429 102.594286 229.828572 131.211429C301.257143 853.314286 347.428571 934.857143 403.691429 981.211429 224.662857 940.022857 84.022857 799.245714 42.788571 620.32zM305.691429 760c63.154286 14.754286 132.845714 23.085714 206.308571 23.085714s143.154286-8.342857 206.308571-23.085714C676.148571 899.942857 599.657143 993.885714 512 993.885714S347.851429 899.942857 305.691429 760z m314.617142 221.211429C676.571429 934.857143 722.742857 853.314286 751.382857 751.531429c101.965714-28.571429 183.382857-74.914286 229.817143-131.211429-41.222857 178.925714-181.862857 319.702857-360.891429 360.891429z"
        p-id="18392" fill="currentColor"></path>
</svg>