<svg t="1710242084268" class="icon" viewBox="0 0 1024 1024" version="1.1" xmlns="http://www.w3.org/2000/svg" p-id="4270"
    width="48" height="48">
    <path
        d="M932.326692 421.389627C932.326692 189.732015 744.537551 1.946768 512.887726 1.946768 281.230114 1.946768 93.444867 189.735909 93.444867 421.389627c0 148.694144 78.065399 283.690829 202.331498 358.945095l0 129.1447c0 33.301414 27.028928 60.34981 60.353703 60.34981l313.511422 0c33.344243 0 60.357597-27.017247 60.357597-60.34981l0-129.140806c124.266099-75.25816 202.327605-210.250951 202.327605-358.948989zm-245.612046 316.517232a29.201521 29.201521 0 0 0-15.1186 25.580533l0 145.99203c0 1.07851-0.868259 1.946768-1.954556 1.946768l-313.507528 0a1.970129 1.970129 0 0 1-1.954555-1.946768l0-145.988137a29.201521 29.201521 0 0 0-15.122494-25.580532c-114.547833-63.055817-187.209004-183.385551-187.209004-316.521126 0-199.395772 161.644046-361.039817 361.039817-361.039817 199.395772 0 361.035924 161.644046 361.035924 361.039817 0 133.131681-72.661171 253.465308-187.209004 316.517232zM420.501901 946.129278c0 27.523407 11.960943 49.28438 33.679088 62.179771 16.512487 9.803924 36.988593 13.744183 61.712547 13.744183s45.200061-3.940259 61.712548-13.744183c21.718144-12.895392 33.679087-34.656365 33.679087-62.179771a29.201521 29.201521 0 1 0-58.403042 0c0 7.23419-1.389992 9.761095-5.092745 11.960943-5.840304 3.465247-16.718844 5.55997-31.895848 5.559969-15.177004 0-26.055544-2.094722-31.895848-5.559969-3.702753-2.199848-5.092745-4.726753-5.092745-11.960943a29.201521 29.201521 0 1 0-58.403042 0zM356.270236 860.907559l303.734753 0a29.201521 29.201521 0 0 0 0-58.403042l-303.734753 0a29.201521 29.201521 0 0 0 0 58.403042zM486.750418 582.075863l0 241.064396a29.201521 29.201521 0 0 0 58.403042 0l0-241.064396a29.201521 29.201521 0 1 0-58.403042 0zM339.504669 456.723468l151.653232 151.657125a29.201521 29.201521 0 1 0 41.298738-41.294844l-151.653232-151.657125a29.201521 29.201521 0 0 0-41.298738 41.294844zM646.90324 415.428624l-151.657126 151.653232a29.201521 29.201521 0 1 0 41.294844 41.298737l151.657126-151.653232a29.201521 29.201521 0 0 0-41.294844-41.298737z"
        fill="currentColor" p-id="4271"></path>
</svg>