<svg t="1710729381730" class="icon" viewBox="0 0 1024 1024" version="1.1" xmlns="http://www.w3.org/2000/svg" p-id="3044"
    width="48" height="48">
    <path
        d="M448 176a48 48 0 0 1-48 48H96v640h768V560a48 48 0 1 1 96 0V896a64 64 0 0 1-64 64H64a64 64 0 0 1-64-64V192a64 64 0 0 1 64-64h336a48 48 0 0 1 48 48zM960 64c35.328 0 64 34.368 64 76.8v230.4c0 42.432-28.672 76.8-64 76.8H576c-35.328 0-64-34.368-64-76.8V140.8C512 98.368 540.672 64 576 64h384z m-32 96h-320v192h320v-192z"
        p-id="3045" fill="currentColor"></path>
</svg>