<svg t="1713335854801" class="icon" viewBox="0 0 1024 1024" version="1.1" xmlns="http://www.w3.org/2000/svg" p-id="4272"
    width="48" height="48">
    <path
        d="M532.693333 97.109333l341.333334 189.482667a42.666667 42.666667 0 0 1 21.973333 37.333333v376.149334a42.666667 42.666667 0 0 1-21.973333 37.333333l-341.333334 189.482667a42.666667 42.666667 0 0 1-41.386666 0l-341.333334-189.482667A42.666667 42.666667 0 0 1 128 700.074667V323.925333a42.666667 42.666667 0 0 1 21.973333-37.333333l341.333334-189.482667a42.666667 42.666667 0 0 1 41.386666 0zM213.333333 388.906667v285.994666l256 142.165334v-280.448L213.333333 388.906667z m597.333334 0l-256 147.669333v280.490667l256-142.165334V388.906667z m-298.666667-205.653334L265.130667 320.341333l246.826666 142.421334 246.869334-142.464L512 183.253333z"
        fill="currentColor" fill-opacity="1" p-id="4273"></path>
</svg>